<svg xmlns="http://www.w3.org/2000/svg" version="1.1" xmlns:xlink="http://www.w3.org/1999/xlink" viewBox="0 0 200 200"><rect width="200" height="200" fill="url('#gradient')"></rect><defs><linearGradient id="gradient" gradientTransform="rotate(45 0.5 0.5)"><stop offset="0%" stop-color="#dee90b"></stop><stop offset="100%" stop-color="#d9e241"></stop></linearGradient></defs><g><g fill="#030b12" transform="matrix(6.7098653076083,0,0,6.7098653076083,8.613465826132526,147.0378731405427)" stroke="#0e5278" stroke-width="0.2"><path d="M10.11-14.22L12.09-5.30L13.72-14.22L17.12-14.22L14.10 0L10.55 0L8.64-8.11L6.78 0L3.23 0L0.21-14.22L3.61-14.22L5.24-5.30L7.20-14.22L10.11-14.22ZM23.84-2.97L23.84-2.97Q23.84-3.39 23.40-3.64Q22.96-3.90 21.73-4.17Q20.50-4.44 19.70-4.89Q18.90-5.33 18.48-5.97Q18.06-6.60 18.06-7.42L18.06-7.42Q18.06-8.88 19.26-9.82Q20.46-10.76 22.40-10.76L22.40-10.76Q24.49-10.76 25.76-9.81Q27.03-8.87 27.03-7.32L27.03-7.32L23.73-7.32Q23.73-8.59 22.39-8.59L22.39-8.59Q21.88-8.59 21.52-8.31Q21.17-8.02 21.17-7.59L21.17-7.59Q21.17-7.15 21.60-6.88Q22.03-6.60 22.97-6.43Q23.92-6.25 24.63-6.01L24.63-6.01Q27.01-5.19 27.01-3.07L27.01-3.07Q27.01-1.62 25.73-0.71Q24.44 0.20 22.40 0.20L22.40 0.20Q21.04 0.20 19.98-0.29Q18.92-0.78 18.32-1.62Q17.72-2.46 17.72-3.39L17.72-3.39L20.80-3.39Q20.82-2.66 21.29-2.32Q21.76-1.98 22.49-1.98L22.49-1.98Q23.16-1.98 23.50-2.26Q23.84-2.53 23.84-2.97Z"></path></g></g></svg>